<svg width="21" height="11" viewBox="0 0 21 11" fill="none" xmlns="http://www.w3.org/2000/svg">
<path d="M5.86909 10.2128C6.19654 9.87374 6.19654 9.33619 5.86909 8.99716L2.98784 6.11411L20.125 6.11411C20.6083 6.11411 21 5.72237 21 5.23912C21 4.75587 20.6083 4.36413 20.125 4.36413L2.98779 4.36413L5.86909 1.48282C6.2048 1.13522 6.19516 0.581326 5.84761 0.245624C5.50853 -0.0818755 4.97098 -0.0818756 4.6319 0.245624L0.257051 4.62047C-0.0850603 4.96176 -0.0857775 5.51576 0.255462 5.85787C0.255974 5.85838 0.256487 5.8589 0.257051 5.85946L4.6319 10.2343C4.97949 10.5701 5.53339 10.5604 5.86909 10.2128Z" fill="#A6A6A6"/>
</svg>
