<svg width="78" height="76" viewBox="0 0 78 76" fill="none" xmlns="http://www.w3.org/2000/svg">
<path d="M57.456 51.4062C58.1361 51.4062 58.6904 51.9535 58.6904 52.625H61.1591C61.1591 50.6092 59.4976 48.9688 57.456 48.9688V46.5312H54.9872V48.9688H51.2841V52.625C51.2841 54.6408 52.9456 56.2812 54.9872 56.2812H57.456C58.1361 56.2812 58.6904 56.8285 58.6904 57.5V58.7188H54.9872C54.3071 58.7188 53.7529 58.1715 53.7529 57.5H51.2841C51.2841 59.5158 52.9456 61.1562 54.9872 61.1562V63.5938H57.456V61.1562H61.1591V57.5C61.1591 55.4842 59.4976 53.8438 57.456 53.8438H54.9872C54.3071 53.8438 53.7529 53.2965 53.7529 52.625V51.4062H57.456Z" fill="white"/>
<path d="M56.2216 41.6562C48.7351 41.6562 42.6435 47.6708 42.6435 55.0625C42.6435 62.4542 48.7351 68.4688 56.2216 68.4688C63.7081 68.4688 69.7997 62.4542 69.7997 55.0625C69.7997 47.6708 63.7081 41.6562 56.2216 41.6562ZM56.2216 66.0312C50.0966 66.0312 45.1122 61.1099 45.1122 55.0625C45.1122 49.0151 50.0966 44.0938 56.2216 44.0938C62.3466 44.0938 67.331 49.0151 67.331 55.0625C67.331 61.1099 62.3466 66.0312 56.2216 66.0312Z" fill="white"/>
<path d="M74.2188 50.764C73.7695 48.9176 73.0338 47.1662 72.0253 45.5404L73.4362 42.7568L69.7997 39.1676V3.875C69.7997 1.85919 68.1383 0.21875 66.0966 0.21875H4.37785C2.3362 0.21875 0.674728 1.85919 0.674728 3.875V45.3125C0.674728 47.3283 2.3362 48.9688 4.37785 48.9688H38.7762C38.5651 49.5574 38.3738 50.1534 38.2257 50.764L35.2372 51.7463V58.3775L38.2244 59.361C38.675 61.2074 39.4094 62.9588 40.4179 64.5834L39.007 67.367L43.7569 72.0567L46.5762 70.6637C48.2216 71.6594 49.9954 72.3858 51.8655 72.8294L52.8629 75.7812H59.5791L60.5752 72.8319C62.4453 72.387 64.2191 71.6619 65.8645 70.6662L68.6839 72.0592L73.4337 67.3694L72.0228 64.5858C73.0313 62.9612 73.767 61.2099 74.2163 59.3635L77.206 58.3787V51.7475L74.2188 50.764ZM4.37785 46.5312C3.69771 46.5312 3.14348 45.984 3.14348 45.3125V3.875C3.14348 3.20347 3.69771 2.65625 4.37785 2.65625H66.0966C66.7767 2.65625 67.331 3.20347 67.331 3.875V38.7361L65.8645 39.4601C64.2191 38.4643 62.4453 37.738 60.5752 37.2943L59.5803 34.3438H52.8641L51.868 37.2931C49.9979 37.738 48.2241 38.4631 46.5787 39.4588L43.7594 38.0658L39.0095 42.7556L40.4204 45.5392C40.2192 45.8634 40.0377 46.1961 39.8587 46.53H4.37785V46.5312ZM74.7372 56.6213L72.0932 57.4915L71.9537 58.1849C71.5439 60.2081 70.7453 62.1081 69.5812 63.8338L69.1825 64.4237L70.4305 66.8868L68.1975 69.0915L65.7028 67.8594L65.1066 68.2518C63.3588 69.4023 61.4331 70.1908 59.3853 70.5942L58.6829 70.732L57.8004 73.3438H54.6416L53.7603 70.7332L53.0579 70.5955C51.0088 70.1908 49.0844 69.4023 47.3366 68.253L46.7404 67.8594L44.2457 69.0915L42.0127 66.8868L43.2607 64.4237L42.8632 63.8351C41.6979 62.1093 40.8993 60.2081 40.4907 58.1862L40.3512 57.4927L37.706 56.6213V53.5025L40.35 52.6323L40.4895 51.9388C40.8993 49.9157 41.6979 48.0157 42.862 46.2887L43.2594 45.7001L42.0115 43.237L44.2445 41.0322L46.7391 42.2644L47.3353 41.872C49.0832 40.7215 51.0088 39.9329 53.0567 39.5295L53.759 39.3918L54.6428 36.7812H57.8016L58.6829 39.3918L59.3853 39.5295C61.4344 39.9342 63.3588 40.7227 65.1066 41.872L65.7028 42.2644L68.1975 41.0322L70.4305 43.237L69.1825 45.7013L69.58 46.2899C70.7453 48.0169 71.5439 49.9169 71.9525 51.9401L72.092 52.6335L74.7372 53.5037V56.6213Z" fill="white"/>
<path d="M26.7188 23.8832L23.4489 22.9606C22.8293 22.7863 22.3207 22.3768 22.0047 21.843C23.0157 20.9668 23.7452 19.787 24.0094 18.433C26.167 18.1124 27.831 16.2868 27.831 14.0686C27.831 9.11928 23.7538 5.09375 18.741 5.09375C16.3254 5.09375 14.0541 6.01756 12.3408 7.69578C9.78071 8.66834 8.08098 11.0924 8.08098 13.8224C8.08098 16.0905 9.7264 17.9845 11.9001 18.4086C12.1606 19.7736 12.8901 20.9619 13.9072 21.8442C13.5912 22.3781 13.0827 22.7876 12.4618 22.9618L9.19315 23.8844C7.08484 24.4767 5.61223 26.4048 5.61223 28.5705V31.9062H30.2997V28.5705C30.2997 26.4048 28.8271 24.4767 26.7188 23.8832ZM11.7841 14.8438V15.8041C11.0546 15.4312 10.5497 14.6877 10.5497 13.8224C10.5497 12.0431 11.6989 10.4697 13.4085 9.90659L13.685 9.81519L14.0591 9.44591C15.3095 8.21131 16.9722 7.53125 18.741 7.53125C22.3923 7.53125 25.3622 10.4636 25.3622 14.0686C25.3622 14.8937 24.8524 15.603 24.1279 15.9065V12.4062H20.716C19.1015 12.4062 17.4844 12.0297 16.039 11.3155L15.7785 11.1875H15.4872C13.4456 11.1875 11.7841 12.8279 11.7841 14.8438ZM21.6591 14.8438V17.2812C21.6591 19.2971 19.9976 20.9375 17.956 20.9375C15.9143 20.9375 14.2529 19.2971 14.2529 17.2812V14.8438C14.2529 14.2514 14.6837 13.7554 15.2515 13.6469C16.9549 14.4306 18.8373 14.8438 20.716 14.8438H21.6591ZM27.831 29.4688H8.08098V28.5705C8.08098 27.4883 8.81667 26.5243 9.87206 26.2269L13.1407 25.3043C14.3911 24.9521 15.4243 24.1294 16.0563 23.0484C16.6587 23.2434 17.2894 23.375 17.956 23.375C18.6225 23.375 19.2533 23.2434 19.8557 23.0484C20.4877 24.1294 21.5209 24.9521 22.7713 25.3043L26.0411 26.2269C27.0953 26.5243 27.831 27.4883 27.831 28.5705V29.4688Z" fill="white"/>
<path d="M5.61223 44.0938H30.2997V34.3438H5.61223V44.0938ZM8.08098 36.7812H27.831V41.6562H8.08098V36.7812Z" fill="white"/>
<path d="M64.8622 5.09375H32.7685V12.4062H64.8622V5.09375ZM40.1747 9.96875H35.2372V7.53125H40.1747V9.96875ZM47.581 9.96875H42.6435V7.53125H47.581V9.96875ZM54.9872 9.96875H50.0497V7.53125H54.9872V9.96875ZM62.3935 9.96875H57.456V7.53125H62.3935V9.96875Z" fill="white"/>
<path d="M32.7685 14.8438H64.8622V17.2812H32.7685V14.8438Z" fill="white"/>
<path d="M62.3935 19.7188H64.8622V22.1562H62.3935V19.7188Z" fill="white"/>
<path d="M32.7685 19.7188H59.9247V22.1562H32.7685V19.7188Z" fill="white"/>
<path d="M37.706 24.5938H40.1747V27.0312H37.706V24.5938Z" fill="white"/>
<path d="M32.7685 24.5938H35.2372V27.0312H32.7685V24.5938Z" fill="white"/>
<path d="M42.6435 24.5938H64.8622V27.0312H42.6435V24.5938Z" fill="white"/>
<path d="M32.7685 29.4688H64.8622V31.9062H32.7685V29.4688Z" fill="white"/>
</svg>
