<svg width="24" height="24" viewBox="0 0 24 24" fill="none" xmlns="http://www.w3.org/2000/svg">
<path d="M2.8125 1.875H3.9375V0H5.8125V1.875H18.1875V0H20.0625V1.875H21.1875C22.7383 1.875 24 3.13669 24 4.6875V21.1875C24 22.7383 22.7383 24 21.1875 24H2.8125C1.26169 24 0 22.7383 0 21.1875V4.6875C0 3.13669 1.26169 1.875 2.8125 1.875ZM1.875 21.1875C1.875 21.7044 2.29556 22.125 2.8125 22.125H21.1875C21.7044 22.125 22.125 21.7044 22.125 21.1875V8.8125H1.875V21.1875ZM1.875 6.9375H22.125V4.6875C22.125 4.17056 21.7044 3.75 21.1875 3.75H20.0625V5.625H18.1875V3.75H5.8125V5.625H3.9375V3.75H2.8125C2.29556 3.75 1.875 4.17056 1.875 4.6875V6.9375Z" fill="#002E5B"/>
<path d="M18.5625 10.7812H20.4375V12.6562H18.5625V10.7812Z" fill="#002E5B"/>
<path d="M14.8125 10.7812H16.6875V12.6562H14.8125V10.7812Z" fill="#002E5B"/>
<path d="M11.0625 10.7812H12.9375V12.6562H11.0625V10.7812Z" fill="#002E5B"/>
<path d="M7.3125 10.7812H9.1875V12.6562H7.3125V10.7812Z" fill="#002E5B"/>
<path d="M3.5625 10.7812H5.4375V12.6562H3.5625V10.7812Z" fill="#002E5B"/>
<path d="M18.5625 14.5312H20.4375V16.4062H18.5625V14.5312Z" fill="#002E5B"/>
<path d="M14.8125 14.5312H16.6875V16.4062H14.8125V14.5312Z" fill="#002E5B"/>
<path d="M11.0625 14.5312H12.9375V16.4062H11.0625V14.5312Z" fill="#002E5B"/>
<path d="M7.3125 14.5312H9.1875V16.4062H7.3125V14.5312Z" fill="#002E5B"/>
<path d="M18.5625 18.2812H20.4375V20.1562H18.5625V18.2812Z" fill="#002E5B"/>
<path d="M14.8125 18.2812H16.6875V20.1562H14.8125V18.2812Z" fill="#002E5B"/>
<path d="M11.0625 18.2812H12.9375V20.1562H11.0625V18.2812Z" fill="#002E5B"/>
<path d="M7.3125 18.2812H9.1875V20.1562H7.3125V18.2812Z" fill="#002E5B"/>
<path d="M3.5625 14.5312H5.4375V16.4062H3.5625V14.5312Z" fill="#002E5B"/>
</svg>
