<svg width="74" height="74" viewBox="0 0 74 74" fill="none" xmlns="http://www.w3.org/2000/svg">
<path d="M60.5616 49.3593H53.1459V51.8312H60.5616V49.3593Z" fill="#012C5D"/>
<path d="M50.6738 49.3593H43.2581V51.8312H50.6738V49.3593Z" fill="#012C5D"/>
<path d="M40.7863 49.3593H33.3706V51.8312H40.7863V49.3593Z" fill="#012C5D"/>
<path d="M72.9049 25.6332L48.4492 1.17378C47.7548 0.472683 46.8085 0.078724 45.8216 0.0799599H45.8104C44.83 0.0804234 43.891 0.474537 43.2038 1.17378L17.2613 27.1126H3.70785C1.66003 27.1126 0 28.7727 0 30.8205V65.4271C0 67.4749 1.66003 69.1349 3.70785 69.1349H22.0197L25.7077 72.8267C26.4022 73.5278 27.3485 73.9218 28.3354 73.9205H28.3453C29.326 73.9202 30.2656 73.5261 30.9531 72.8267L34.6486 69.1349H63.0334C65.0812 69.1349 66.7412 67.4749 66.7412 65.4271V37.0423L72.8987 30.8848C73.6015 30.1968 73.9983 29.2553 74 28.272C74.0037 27.281 73.6091 26.3303 72.9049 25.6332ZM57.1824 13.406L43.4757 27.1126H32.9801L51.9346 8.15813L57.1824 13.406ZM44.9539 2.91646C45.4241 2.43491 46.1956 2.42564 46.6773 2.89592C46.6843 2.90271 46.6912 2.90951 46.6979 2.91646L50.1869 6.41049L29.4836 27.1126H20.7565L44.9539 2.91646ZM29.203 71.084C28.977 71.3201 28.6646 71.4539 28.3378 71.4548C28.0066 71.454 27.6896 71.3205 27.4578 71.084L25.5162 69.1349H31.1533L29.203 71.084ZM64.2693 65.4271C64.2693 66.1096 63.716 66.663 63.0334 66.663H3.70785C3.02529 66.663 2.4719 66.1096 2.4719 65.4271V48.1238H64.2693V65.4271ZM64.2693 45.6519H2.4719V38.2362H64.2693V45.6519ZM64.2693 35.7643H2.4719V30.8205C2.4719 30.1379 3.02529 29.5845 3.70785 29.5845H63.0334C63.716 29.5845 64.2693 30.1379 64.2693 30.8205V35.7643ZM71.1573 29.131L66.7412 33.547V30.8205C66.7412 28.7727 65.0812 27.1126 63.0334 27.1126H46.9661L58.9251 15.1536L71.1524 27.3808C71.3898 27.6135 71.5234 27.9321 71.5231 28.2646C71.5228 28.5908 71.3909 28.9032 71.1573 29.131Z" fill="#012C5D"/>
<path d="M11.8528 64.2238C12.0332 64.0677 12.2022 63.8987 12.3583 63.7183C13.9927 65.6219 16.8009 65.9836 18.8643 64.5562C20.1961 63.6251 20.9954 62.1075 21.0099 60.4825C21.0099 57.7522 18.7965 55.5387 16.0661 55.5387C15.8208 55.5353 15.5758 55.556 15.3344 55.6005L15.3023 55.6092C15.29 55.6092 15.2776 55.6092 15.2665 55.6092C14.1342 55.7974 13.1045 56.3784 12.3583 57.2505C10.5723 55.1853 7.45017 54.9589 5.38505 56.745C3.31978 58.531 3.09345 61.6531 4.87955 63.7183C6.6655 65.7835 9.78751 66.0099 11.8528 64.2238ZM15.7534 58.0366C15.8565 58.017 15.9612 58.0083 16.0661 58.0106C17.4314 58.0106 18.538 59.1173 18.538 60.4825C18.5368 61.0055 18.3664 61.5141 18.0523 61.9323C18.0078 61.9929 17.9732 62.0559 17.9225 62.1189C17.9139 62.1288 17.9015 62.135 17.8916 62.1449C17.4248 62.6605 16.7617 62.9546 16.0661 62.9545C14.7012 62.9311 13.6134 61.8058 13.6367 60.4408C13.6574 59.2288 14.5538 58.2106 15.7534 58.0366ZM8.65043 58.0106C10.0157 58.0106 11.1223 59.1173 11.1223 60.4825C11.1223 61.8478 10.0157 62.9545 8.65043 62.9545C7.28517 62.9545 6.17853 61.8478 6.17853 60.4825C6.17853 59.1173 7.28517 58.0106 8.65043 58.0106Z" fill="#012C5D"/>
</svg>
