<svg width="10" height="19" viewBox="0 0 10 19" fill="none" xmlns="http://www.w3.org/2000/svg">
<path d="M8 6.32982C8 6.91244 8.44773 7.38478 9 7.38478C9.55227 7.38478 10 6.91244 10 6.32982C10 5.16149 9.4272 4.03817 8.4284 3.24793C7.7462 2.70815 6.9068 2.34756 6 2.19417V1.05496C6 0.47234 5.55227 0 5 0C4.44773 0 4 0.47234 4 1.05496V2.19417C3.09313 2.34756 2.25373 2.70815 1.5716 3.24793C0.5728 4.03817 0 5.16149 0 6.32982C0 7.49815 0.5728 8.6214 1.5716 9.4117C2.2538 9.95149 3.0932 10.3121 4 10.4655V14.6437C2.848 14.3467 2 13.558 2 12.6596C2 12.0769 1.55227 11.6046 1 11.6046C0.447733 11.6046 0 12.0769 0 12.6596C0 13.8279 0.5728 14.9511 1.5716 15.7414C2.2538 16.2812 3.0932 16.6418 4 16.7952V17.945C4 18.5277 4.44773 19 5 19C5.55227 19 6 18.5277 6 17.945V16.7952C6.90687 16.6418 7.74627 16.2812 8.4284 15.7414C9.4272 14.9512 10 13.8279 10 12.6596C10 11.4912 9.4272 10.3679 8.4284 9.57768C7.7462 9.03789 6.9068 8.67731 6 8.52392V4.34565C7.152 4.64273 8 5.43134 8 6.32982ZM2 6.32982C2 5.43134 2.848 4.64266 4 4.34565V8.31391C2.848 8.01698 2 7.22829 2 6.32982ZM8 12.6596C8 13.558 7.152 14.3467 6 14.6437V10.6755C7.152 10.9725 8 11.7611 8 12.6596Z" fill="#FCE341"/>
</svg>
