<svg width="20" height="27" viewBox="0 0 20 27" fill="none" xmlns="http://www.w3.org/2000/svg">
<path d="M8.73 27C8.53 27 8.35 26.93 8.19 26.79C8.05 26.65 7.98 26.47 7.98 26.25V24.18C6.5 24 5.23 23.62 4.17 23.04C3.13 22.46 2.34 21.76 1.8 20.94C1.28 20.1 1 19.21 0.96 18.27C0.96 18.11 1.02 17.97 1.14 17.85C1.28 17.71 1.44 17.64 1.62 17.64H5.4C5.64 17.64 5.83 17.69 5.97 17.79C6.13 17.87 6.29 18 6.45 18.18C6.71 18.7 7.12 19.13 7.68 19.47C8.26 19.81 9.04 19.98 10.02 19.98C11.16 19.98 12.03 19.8 12.63 19.44C13.23 19.08 13.53 18.59 13.53 17.97C13.53 17.53 13.37 17.17 13.05 16.89C12.75 16.61 12.27 16.36 11.61 16.14C10.95 15.92 9.97 15.67 8.67 15.39C6.25 14.91 4.45 14.18 3.27 13.2C2.09 12.22 1.5 10.83 1.5 9.03C1.5 7.43 2.08 6.07 3.24 4.95C4.4 3.81 5.98 3.11 7.98 2.85V0.749999C7.98 0.529999 8.05 0.349999 8.19 0.209999C8.35 0.0699993 8.53 -3.57628e-07 8.73 -3.57628e-07H11.22C11.44 -3.57628e-07 11.62 0.0699993 11.76 0.209999C11.9 0.349999 11.97 0.529999 11.97 0.749999V2.91C13.29 3.13 14.42 3.55 15.36 4.17C16.32 4.77 17.05 5.46 17.55 6.24C18.05 7.02 18.32 7.79 18.36 8.55C18.36 8.71 18.3 8.86 18.18 9C18.06 9.12 17.91 9.18 17.73 9.18H13.77C13.53 9.18 13.33 9.14 13.17 9.06C13.03 8.98 12.9 8.85 12.78 8.67C12.66 8.21 12.33 7.82 11.79 7.5C11.27 7.18 10.62 7.02 9.84 7.02C8.94 7.02 8.25 7.18 7.77 7.5C7.29 7.82 7.05 8.29 7.05 8.91C7.05 9.33 7.18 9.68 7.44 9.96C7.72 10.24 8.16 10.5 8.76 10.74C9.38 10.96 10.26 11.19 11.4 11.43C13.26 11.77 14.74 12.2 15.84 12.72C16.94 13.22 17.75 13.87 18.27 14.67C18.79 15.47 19.05 16.49 19.05 17.73C19.05 19.49 18.41 20.93 17.13 22.05C15.85 23.17 14.13 23.87 11.97 24.15V26.25C11.97 26.47 11.9 26.65 11.76 26.79C11.62 26.93 11.44 27 11.22 27H8.73Z" fill="#181C32"/>
</svg>
