<svg width="18" height="18" viewBox="0 0 18 18" fill="none" xmlns="http://www.w3.org/2000/svg">
<path fill-rule="evenodd" clip-rule="evenodd" d="M16.5 9C16.5 13.1421 13.1421 16.5 9 16.5C7.2916 16.5 5.71662 15.9288 4.45561 14.967L14.6395 4.0556C15.7978 5.37565 16.5 7.10582 16.5 9ZM3.35935 13.9431L13.543 3.03203C12.2823 2.0708 10.7078 1.5 9 1.5C4.85786 1.5 1.5 4.85786 1.5 9C1.5 10.8936 2.20174 12.6232 3.35935 13.9431ZM18 9C18 13.9706 13.9706 18 9 18C4.02944 18 0 13.9706 0 9C0 4.02944 4.02944 0 9 0C13.9706 0 18 4.02944 18 9Z" fill="white"/>
</svg>
