<svg width="17" height="17" viewBox="0 0 17 17" fill="none" xmlns="http://www.w3.org/2000/svg">
<path d="M15.8653 1.12105C15.6641 0.923221 15.3893 0.820703 15.0831 0.820703C14.9094 0.820703 14.7268 0.853477 14.5409 0.91549C14.5409 0.915496 14.5409 0.915503 14.5409 0.915509L1.79369 5.16446L1.79368 5.16447C1.43371 5.2845 1.20695 5.45424 1.06865 5.63557C0.930476 5.81674 0.888967 5.99852 0.88094 6.12878L15.8653 1.12105ZM15.8653 1.12105L15.8658 1.1215L15.8679 1.12349L15.868 1.12347M15.8653 1.12105L15.868 1.12347M15.868 1.12347C15.8737 1.12875 15.8781 1.13366 15.8807 1.13658C15.9144 1.17117 15.9466 1.2087 15.9763 1.25001L15.8544 1.33749M15.868 1.12347L0.880936 6.12885C0.872865 6.25914 0.891651 6.44466 1.00641 6.64149C1.12128 6.83849 1.32533 7.03487 1.66765 7.19833C1.66765 7.19833 1.66765 7.19834 1.66765 7.19834L4.7412 8.66621L3.36212 12.0716C3.36205 12.0718 3.36198 12.072 3.36191 12.0722C3.35705 12.084 3.3527 12.0958 3.34883 12.1075C3.17831 12.6191 3.23685 13.1148 3.5611 13.439C3.76673 13.6446 4.04482 13.7447 4.35162 13.7447C4.52455 13.7447 4.70676 13.713 4.89238 13.6512L4.89296 13.651C4.90338 13.6475 4.91515 13.6433 4.92767 13.6381C4.92786 13.638 4.92806 13.638 4.92825 13.6379L8.3338 12.2588L9.80156 15.3322L9.80157 15.3323C9.95769 15.6591 10.1445 15.8587 10.3308 15.9756C10.5171 16.0925 10.6931 16.1207 10.8178 16.1207C10.9301 16.1207 11.1193 16.0962 11.3158 15.964C11.5135 15.831 11.7048 15.5983 11.8354 15.2062L16.0845 2.45895C16.2344 2.00923 16.2095 1.57346 15.9761 1.24977L15.8544 1.33749M15.8544 1.33749C15.8288 1.30178 15.8005 1.26894 15.7702 1.23815L15.9422 2.41152C16.0822 1.99163 16.0511 1.6102 15.8544 1.33749ZM15.8638 1.11969L15.863 1.11897L15.8638 1.11969ZM4.46215 12.496L5.80696 9.17525L6.22193 9.37351L6.22197 9.37353C6.46709 9.49055 6.75864 9.71389 7.02235 9.9776C7.28606 10.2413 7.50942 10.5329 7.6265 10.778L7.82478 11.193L4.50405 12.5379C4.48277 12.5445 4.4635 12.5498 4.44616 12.5538C4.45023 12.5365 4.45546 12.5172 4.46215 12.496ZM2.35509 6.22015L13.7418 2.42448L7.41653 8.74982C7.19109 8.57075 6.95691 8.41793 6.73002 8.30961L2.35509 6.22015ZM10.7798 14.6451L8.69029 10.2699C8.58195 10.043 8.42912 9.80886 8.25007 9.58338L14.5755 3.25802L10.7798 14.6451Z" fill="#42FF00" stroke="#42FF00" stroke-width="0.3"/>
</svg>
