<svg width="36" height="36" viewBox="0 0 36 36" fill="none" xmlns="http://www.w3.org/2000/svg">
<path d="M21.52 6.41504V12.265H27.265L21.52 6.41504Z" fill="#0F2C4C"/>
<path d="M26.9152 13.84H21.6302C21.1961 13.8374 20.7808 13.6628 20.4753 13.3544C20.1697 13.046 19.9989 12.6291 20.0002 12.195V7.07504V6.66504H11.7102C11.4288 6.66569 11.1502 6.72186 10.8905 6.83033C10.6308 6.93879 10.395 7.09742 10.1967 7.29713C9.99838 7.49684 9.8414 7.73371 9.73476 7.99418C9.62812 8.25465 9.5739 8.53359 9.57522 8.81504V27.185C9.5739 27.4665 9.62812 27.7454 9.73476 28.0059C9.8414 28.2664 9.99838 28.5032 10.1967 28.7029C10.395 28.9027 10.6308 29.0613 10.8905 29.1698C11.1502 29.2782 11.4288 29.3344 11.7102 29.335H25.1352C25.4162 29.3337 25.6943 29.2771 25.9534 29.1683C26.2125 29.0596 26.4477 28.9008 26.6455 28.7012C26.8433 28.5015 26.9998 28.2649 27.1062 28.0047C27.2125 27.7446 27.2665 27.4661 27.2652 27.185V13.84H26.9152ZM11.5002 10.57C11.5015 10.5041 11.5282 10.4413 11.5749 10.3947C11.6215 10.3481 11.6843 10.3213 11.7502 10.32H15.7502C15.8165 10.32 15.8801 10.3464 15.927 10.3933C15.9739 10.4401 16.0002 10.5037 16.0002 10.57V11.635C16.0002 11.7013 15.9739 11.7649 15.927 11.8118C15.8801 11.8587 15.8165 11.885 15.7502 11.885H11.7502C11.6839 11.885 11.6203 11.8587 11.5734 11.8118C11.5266 11.7649 11.5002 11.7013 11.5002 11.635V10.57ZM11.5002 13.275C11.5002 13.2087 11.5266 13.1451 11.5734 13.0983C11.6203 13.0514 11.6839 13.025 11.7502 13.025H15.7502C15.8165 13.025 15.8801 13.0514 15.927 13.0983C15.9739 13.1451 16.0002 13.2087 16.0002 13.275V14.34C16.0002 14.4063 15.9739 14.4699 15.927 14.5168C15.8801 14.5637 15.8165 14.59 15.7502 14.59H11.7502C11.6843 14.5888 11.6215 14.562 11.5749 14.5154C11.5282 14.4688 11.5015 14.4059 11.5002 14.34V13.275ZM25.2552 22.08C25.2552 22.2909 25.1715 22.4931 25.0224 22.6422C24.8733 22.7913 24.6711 22.875 24.4602 22.875H12.3052C12.2 22.8764 12.0955 22.8568 11.9979 22.8174C11.9003 22.7781 11.8115 22.7197 11.7366 22.6458C11.6617 22.5718 11.6023 22.4837 11.5617 22.3866C11.5211 22.2895 11.5002 22.1853 11.5002 22.08V17.925C11.5002 17.7142 11.584 17.512 11.7331 17.3629C11.8822 17.2138 12.0844 17.13 12.2952 17.13H24.4602C24.6711 17.13 24.8733 17.2138 25.0224 17.3629C25.1715 17.512 25.2552 17.7142 25.2552 17.925V22.08ZM20.7552 25.2C20.7565 25.1341 20.7832 25.0713 20.8299 25.0247C20.8765 24.9781 20.9393 24.9513 21.0052 24.95H25.0052C25.0715 24.95 25.1351 24.9764 25.182 25.0233C25.2289 25.0701 25.2552 25.1337 25.2552 25.2V26.265C25.2552 26.3313 25.2289 26.3949 25.182 26.4418C25.1351 26.4887 25.0715 26.515 25.0052 26.515H21.0002C20.9339 26.515 20.8703 26.4887 20.8234 26.4418C20.7766 26.3949 20.7502 26.3313 20.7502 26.265L20.7552 25.2Z" fill="#0F2C4C" stroke="#0F2C4C" stroke-miterlimit="10"/>
<path d="M23.7352 18.465H12.9702V21.395H23.7352V18.465Z" fill="#0F2C4C"/>
</svg>
