<svg width="36" height="36" viewBox="0 0 36 36" fill="none" xmlns="http://www.w3.org/2000/svg">
<path d="M24.6699 6.37H11.3299C10.7243 6.37132 10.1439 6.61248 9.71564 7.04072C9.28741 7.46895 9.04624 8.04938 9.04492 8.65499V27.345C9.04624 27.9506 9.28741 28.531 9.71564 28.9593C10.1439 29.3875 10.7243 29.6287 11.3299 29.63H24.6699C25.2755 29.6287 25.856 29.3875 26.2842 28.9593C26.7124 28.531 26.9536 27.9506 26.9549 27.345V8.65499C26.9536 8.04938 26.7124 7.46895 26.2842 7.04072C25.856 6.61248 25.2755 6.37132 24.6699 6.37ZM17.6699 18.83L14.6699 16.93L11.7749 18.83V10.46H17.6499L17.6699 18.83Z" fill="#0F2C4C"/>
<path d="M24.4551 31.16C27.2165 31.16 29.4551 28.9215 29.4551 26.16C29.4551 23.3986 27.2165 21.16 24.4551 21.16C21.6937 21.16 19.4551 23.3986 19.4551 26.16C19.4551 28.9215 21.6937 31.16 24.4551 31.16Z" fill="white" stroke="#0F2C4C" stroke-width="4" stroke-miterlimit="10"/>
<path d="M23.4302 24.225V28.095L26.5952 26.16L23.4302 24.225Z" stroke="#0F2C4C" stroke-miterlimit="10"/>
</svg>
