<svg width="14" height="18" viewBox="0 0 14 18" fill="none" xmlns="http://www.w3.org/2000/svg">
<path d="M12.0587 11C12.6486 11 13.1181 11.1473 13.4673 11.442C13.8224 11.7312 14 12.1351 14 12.6535C14 13.2319 13.8014 13.6658 13.4041 13.955C13.0128 14.2387 12.474 14.3861 11.7878 14.397V15.3629H11.0113V13.8895H11.3725C11.9263 13.8895 12.3657 13.8022 12.6907 13.6276C13.0218 13.4529 13.1874 13.1282 13.1874 12.6535C13.1874 12.3315 13.082 12.0778 12.8713 11.8922C12.6667 11.7067 12.3868 11.6139 12.0316 11.6139C11.6584 11.6139 11.3574 11.7094 11.1287 11.9004C10.9059 12.0914 10.7946 12.3424 10.7946 12.6535H10C10 12.3261 10.0843 12.0368 10.2528 11.7858C10.4214 11.5348 10.6622 11.3411 10.9752 11.2046C11.2882 11.0682 11.6494 11 12.0587 11ZM11.9052 16.1241V17H10.912V16.1241H11.9052Z" fill="#343434"/>
<path fill-rule="evenodd" clip-rule="evenodd" d="M7.02399 11.846C7.31702 11.672 7.52399 11.366 7.52399 11C7.52399 10.447 7.07501 10 6.52399 10C5.97101 10 5.52399 10.448 5.52399 11C5.52399 11.367 5.72998 11.673 6.02399 11.847V14H7.02399V11.846ZM12.989 10V8.48801C12.989 7.673 12.335 7.01001 11.524 6.992V5C11.524 2.24301 9.28101 0 6.52399 0C3.76703 0 1.52399 2.24301 1.52399 5V6.98801H1.5C0.672974 6.98801 0 7.66101 0 8.48801V15.568C0 16.395 0.672974 17.068 1.5 17.068H8V16.068H1.5C1.22498 16.068 1 15.844 1 15.568V8.48801C1 8.21201 1.22498 7.98801 1.5 7.98801H1.52399V7.99899H11.524V7.995C11.782 8.01401 11.989 8.224 11.989 8.48801V10H12.989ZM10.524 5V6.98801H2.52399V5C2.52399 2.79401 4.31799 1 6.52399 1C8.72998 1 10.524 2.79401 10.524 5Z" fill="#343434"/>
</svg>
