<svg width="13" height="18" viewBox="0 0 13 18" fill="none" xmlns="http://www.w3.org/2000/svg">
<path d="M7.524 11C7.524 11.366 7.317 11.672 7.024 11.846V14H6.024V11.847C5.73 11.673 5.524 11.367 5.524 11C5.524 10.448 5.971 10 6.524 10C7.075 10 7.524 10.447 7.524 11ZM12.989 8.488V15.568C12.989 16.395 12.316 17.068 11.489 17.068H1.5C0.673 17.068 0 16.395 0 15.568V8.488C0 7.661 0.673 6.988 1.5 6.988H1.524V5C1.524 2.243 3.767 0 6.524 0C9.281 0 11.524 2.243 11.524 5V6.992C12.335 7.01 12.989 7.673 12.989 8.488ZM2.524 6.988H10.524V5C10.524 2.794 8.73 1 6.524 1C4.318 1 2.524 2.794 2.524 5V6.988ZM11.989 8.488C11.989 8.224 11.782 8.014 11.524 7.995V7.999H1.524V7.988H1.5C1.225 7.988 1 8.212 1 8.488V15.568C1 15.844 1.225 16.068 1.5 16.068H11.489C11.764 16.068 11.989 15.844 11.989 15.568V8.488Z" fill="#999999"/>
</svg>
