<svg width="142" height="127" viewBox="0 0 142 127" fill="none" xmlns="http://www.w3.org/2000/svg">
<path fill-rule="evenodd" clip-rule="evenodd" d="M88.5371 35.8975C88.2353 39.6086 86.731 43.4645 84.3214 47.1039L82.4399 40.8939L82.6663 40.0375L83.7949 36.4684L81.0096 37.7537L76.3443 36.6822C76.3443 35.5403 75.3651 34.5404 74.0856 34.5404C72.8816 34.5404 71.8284 35.4686 71.8284 36.6822C71.8284 37.824 72.8061 38.8239 74.0856 38.8239C74.9139 38.8239 75.5914 38.3964 75.9671 37.824L80.9356 39.0376L83.7194 47.89C79.7301 53.6725 73.559 58.6689 66.8599 61.1678C56.3238 65.0223 48.1943 61.1678 47.894 52.4589C47.8186 53.1001 47.7431 53.6725 47.6677 54.2434C46.8394 65.9504 56.9258 71.4461 70.2472 66.5214C83.5685 61.667 95.0099 48.1754 95.8368 36.5401C96.6651 24.8331 86.5801 19.3361 73.2573 24.2622C72.5813 24.5476 71.9038 24.7614 71.2264 25.1186C81.4622 22.1922 88.9128 26.8314 88.3108 36.0395L88.5371 35.8975ZM84.3214 47.1039C84.4723 46.8901 84.5478 46.6764 84.6986 46.4626L85.2252 48.1037H85.3007C86.3538 48.1037 87.1822 48.8898 87.1822 49.8882C87.1822 50.8881 86.3538 51.6728 85.3007 51.6728C84.246 51.6728 83.4192 50.8881 83.4192 49.8882C83.4192 49.3173 83.644 48.8898 84.0966 48.5326L84.3214 47.1039ZM84.0966 48.5326L84.5478 48.2472L84.246 47.1039L84.0966 48.4609V48.5326ZM85.0743 48.1754C85.0743 48.1754 85.0743 48.1754 84.9989 48.1754C84.9989 48.1754 84.9989 48.1754 85.0743 48.1754ZM84.9989 48.1754C84.9989 48.1754 84.9989 48.1754 84.9235 48.1754C84.9235 48.1754 84.9235 48.1754 84.9989 48.1754ZM84.9235 48.1754C84.9235 48.1754 84.9235 48.1754 84.8495 48.1754C84.8495 48.1754 84.8495 48.1754 84.9235 48.1754ZM84.8495 48.1754C84.8495 48.1754 84.8495 48.1754 84.7741 48.1754C84.7741 48.1754 84.7741 48.1754 84.8495 48.1754ZM84.7741 48.1754C84.7741 48.1754 84.7741 48.1754 84.6986 48.1754H84.7741ZM84.6986 48.1754C84.6986 48.1754 84.6986 48.1754 84.6232 48.1754C84.6232 48.1754 84.6232 48.1754 84.6986 48.1754ZM84.6232 48.1754C84.6232 48.1754 84.6232 48.1754 84.5478 48.1754C84.5478 48.1754 84.5478 48.1754 84.6232 48.1754ZM84.5478 48.1754C84.5478 48.1754 84.5478 48.1754 84.4723 48.1754C84.4723 48.1754 84.4723 48.1754 84.5478 48.1754ZM84.4723 48.1754C84.4723 48.1754 84.4723 48.1754 84.3969 48.1754C84.3969 48.1754 84.3969 48.1754 84.4723 48.1754ZM84.3969 48.1754C84.3969 48.1754 84.3969 48.1754 84.3214 48.1754H84.3969Z" fill="#2A2E30"/>
<path fill-rule="evenodd" clip-rule="evenodd" d="M58.0543 57.3118C57.0012 56.1699 56.0974 54.886 55.2691 53.6007L50.302 54.7426C51.3552 55.9562 52.4853 56.956 53.7648 57.8842L58.1298 57.3118H58.0543ZM76.3442 28.1167C76.7954 28.1167 77.0971 28.4739 77.0971 28.8296C77.0971 29.2585 76.7199 29.544 76.3442 29.544C75.8916 29.544 75.5913 29.1868 75.5913 28.8296C75.5913 28.4021 75.967 28.1167 76.3442 28.1167ZM76.3442 27.0451C77.3974 27.0451 78.2257 27.8312 78.2257 28.8296C78.2257 29.8295 77.3974 30.6142 76.3442 30.6142C75.2896 30.6142 74.4627 29.8295 74.4627 28.8296C74.4627 28.6876 74.4627 28.5442 74.5367 28.4739L71.7529 27.474L67.9899 28.1167L67.237 29.8295L69.4942 34.2549L64.1515 36.1112L61.8928 30.9714L66.2578 29.6875L67.1616 27.7595L64.9029 24.6179C65.0538 24.6179 65.2046 24.6179 65.3555 24.6179C66.7859 24.6179 68.2147 24.7614 69.6451 25.0468C70.2471 25.1903 70.9246 25.3323 71.5266 25.546C72.204 25.7612 72.8815 26.0467 73.559 26.3321C73.3326 26.4025 73.1078 26.4025 72.8815 26.4742L74.9139 27.7595C75.2896 27.3306 75.8176 27.0451 76.4197 27.0451H76.3442ZM54.667 27.616C54.9688 29.3303 55.3445 30.9714 55.7217 32.5421L60.4624 30.4004L58.3561 25.7612C57.0766 26.2604 55.7971 26.8314 54.667 27.5457V27.616ZM46.2373 39.3231L49.7 36.7539C49.5491 35.3265 49.4737 33.8978 49.4737 32.3987C47.8939 34.4701 46.8393 36.8256 46.2373 39.3948V39.3231ZM50.6038 42.3929C50.2266 40.8939 50.0018 39.3231 49.7754 37.682L46.0124 40.3229C45.8616 41.251 45.7861 42.1074 45.7861 43.0356C45.7861 43.6782 45.7861 44.3209 45.8616 44.9635L50.5283 42.3929H50.6038ZM51.6569 41.822L56.3992 39.2528C55.8711 37.6103 55.4199 35.8257 54.9688 34.1129L50.8286 37.0393C51.0549 38.6818 51.3552 40.3229 51.7324 41.8937L51.6569 41.822ZM53.3876 47.461L58.6564 45.391C57.9789 43.7499 57.3769 42.0357 56.7749 40.3229L51.9572 42.8218C52.3344 44.4629 52.861 45.962 53.463 47.461H53.3876ZM47.5922 50.6743C48.1942 51.8879 48.9471 53.1001 49.7754 54.0999L50.0757 54.0282L54.667 52.7443C53.9142 51.5307 53.3121 50.2454 52.7101 48.8898L47.5922 50.6743ZM56.3237 53.3153C57.1506 54.6709 58.0543 55.9562 59.1075 57.1698L64.5272 56.4554C63.5494 55.0281 62.6457 53.6007 61.8173 52.0299L56.2483 53.2435L56.3237 53.3153Z" fill="#2A2E30"/>
<path fill-rule="evenodd" clip-rule="evenodd" d="M50.6777 35.9693L54.7425 32.9711C54.3668 31.4004 54.065 29.8296 53.7648 28.2588C52.4853 29.1152 51.3552 30.1868 50.3775 31.3286C50.4529 32.8994 50.6038 34.4702 50.7532 36.0396L50.6777 35.9693ZM70.398 48.8182L66.2578 46.8902C66.2578 45.9621 65.5049 45.2491 64.5272 45.2491C63.5494 45.2491 62.7966 45.9621 62.7966 46.8902C62.7966 47.8183 63.5494 48.5327 64.5272 48.5327C65.0538 48.5327 65.5803 48.3175 65.8821 47.9618L70.0962 49.96L69.7205 49.1036L72.6552 56.3135C74.0101 55.4571 75.2142 54.5289 76.4197 53.4574C76.5691 53.3153 76.7199 53.1719 76.9463 53.0299L74.9893 47.1039L69.7205 49.1036L70.398 48.8182ZM64.6781 42.7502L69.4942 43.8921C69.4942 45.1057 70.5489 46.1055 71.8283 46.1055C73.1078 46.1055 74.161 45.1057 74.161 43.8921C74.161 42.6785 73.1078 41.68 71.8283 41.68C71 41.68 70.2471 42.1075 69.796 42.7502L65.1292 41.68L63.3231 37.3249L57.6786 39.6804C58.2807 41.4649 58.8827 43.1791 59.6356 44.8202L65.5049 42.393L64.7535 42.7502H64.6781ZM71.8283 45.0339C71.1509 45.0339 70.6243 44.5347 70.6243 43.8921C70.6243 43.2494 71.1509 42.7502 71.8283 42.7502C72.5058 42.7502 73.0324 43.2494 73.0324 43.8921C73.0324 44.5347 72.5058 45.0339 71.8283 45.0339ZM64.4517 46.1772C64.9029 46.1772 65.2046 46.533 65.2046 46.8902C65.2046 47.3191 64.8289 47.6046 64.4517 47.6046C64.0006 47.6046 63.6988 47.2474 63.6988 46.8902C63.6988 46.4627 64.076 46.1772 64.4517 46.1772ZM61.5171 60.7389C60.4624 59.8825 59.4847 58.9544 58.5809 58.0263L54.3668 58.3835C56.0974 59.5254 58.0543 60.31 60.1622 60.8824C60.6133 60.8824 61.0644 60.8107 61.4416 60.7389H61.5171ZM65.1292 57.4554L59.7095 57.9546C60.5379 58.8827 61.4416 59.7391 62.4194 60.5969C63.7743 60.3818 65.1292 59.9543 66.3332 59.5254C66.4087 59.5254 66.4841 59.4536 66.635 59.4536C66.1084 58.811 65.6558 58.1697 65.2046 57.5271L65.1292 57.4554ZM59.785 33.8979L58.8827 31.4721L56.0974 32.756L59.785 33.8979ZM64.5272 36.4685L67.9899 37.8241L67.3879 35.3969L64.5272 36.4685ZM58.2052 38.8957L61.0644 37.6821L59.785 35.5404L58.2052 38.9674V38.8957ZM59.0336 46.6047L53.6893 48.461C54.2913 49.8166 54.8934 51.1019 55.6463 52.3872L61.0644 50.8164C60.313 49.4608 59.6356 48.0321 59.0336 46.533V46.6047ZM50.7532 43.3211L45.937 45.82C46.1618 47.2474 46.539 48.603 47.1411 49.8883L52.1835 47.8183C51.5815 46.391 51.1304 44.8202 50.7532 43.2494V43.3211Z" fill="#04A99F"/>
<path d="M32.3233 83.3422C32.1058 83.3422 31.9979 83.2395 31.9979 83.0328V78.5384L31.9564 78.3922L28.0929 70.984C28.0529 70.925 28.0337 70.8701 28.0337 70.8209C28.0337 70.7618 28.0588 70.7126 28.1106 70.6747C28.1609 70.6381 28.2319 70.6184 28.3236 70.6184H30.5424C30.7199 70.6184 30.8471 70.7 30.9269 70.8603L33.2581 75.5909C33.2847 75.6247 33.3143 75.6415 33.3469 75.6415C33.3779 75.6415 33.4001 75.6247 33.4119 75.5909L35.749 70.8603C35.8393 70.7 35.9679 70.6184 36.1336 70.6184H38.3701C38.5624 70.6184 38.66 70.6915 38.66 70.8378C38.66 70.8983 38.6452 70.9475 38.6186 70.984L34.7136 78.3922L34.6781 78.5384V83.0328C34.6781 83.2395 34.5686 83.3422 34.3527 83.3422H32.3233Z" fill="#2A2E30"/>
<path d="M44.6111 83.5053C43.5254 83.5053 42.6009 83.2395 41.8362 82.7065C41.07 82.1707 40.5463 81.4409 40.2623 80.5184C40.0848 79.9489 39.9961 79.3301 39.9961 78.6621C39.9961 77.9239 40.0922 77.2812 40.286 76.7328C40.5774 75.837 41.1025 75.1339 41.8598 74.6234C42.6201 74.1143 43.5431 73.8584 44.6288 73.8584C45.6731 73.8584 46.5695 74.1143 47.315 74.6234C48.0635 75.1339 48.5841 75.8314 48.877 76.7159C49.0693 77.2756 49.1669 77.9126 49.1669 78.6284C49.1669 79.2584 49.0841 79.8715 48.9184 80.4678C48.6226 81.4128 48.093 82.1553 47.3328 82.6953C46.5754 83.2353 45.6672 83.5053 44.6111 83.5053ZM44.6111 81.3003C45.0164 81.3003 45.3655 81.1807 45.6583 80.9403C45.9542 80.697 46.1642 80.3637 46.2914 79.939C46.3935 79.61 46.4453 79.1839 46.4453 78.6621C46.4453 78.1531 46.3935 77.7228 46.2914 77.374C46.1642 76.962 45.9542 76.6414 45.6583 76.4121C45.3655 76.1801 45.0031 76.0634 44.5697 76.0634C44.1511 76.0634 43.7946 76.1801 43.4988 76.4121C43.2059 76.6414 42.9958 76.962 42.8657 77.374C42.7666 77.7228 42.7178 78.1531 42.7178 78.6621C42.7178 79.1614 42.7666 79.5875 42.8657 79.939C42.9958 80.3637 43.2103 80.697 43.5106 80.9403C43.8094 81.1807 44.1762 81.3003 44.6111 81.3003Z" fill="#2A2E30"/>
<path d="M56.6496 74.314C56.6496 74.1087 56.7576 74.0046 56.9751 74.0046H59.0222C59.2382 74.0046 59.3476 74.1087 59.3476 74.314V83.0496C59.3476 83.2564 59.2382 83.359 59.0222 83.359H56.9751C56.7576 83.359 56.6496 83.2564 56.6496 83.0496V82.5603C56.6496 82.5125 56.6334 82.4843 56.6023 82.4759C56.5698 82.4689 56.5402 82.4843 56.5136 82.5209C56.0166 83.1664 55.2311 83.4884 54.1587 83.4884C53.1884 83.4884 52.3896 83.21 51.7625 82.6503C51.1383 82.092 50.8276 81.3101 50.8276 80.3046V74.314C50.8276 74.1087 50.9356 74.0046 51.1531 74.0046H53.1825C53.3984 74.0046 53.5079 74.1087 53.5079 74.314V79.6634C53.5079 80.1514 53.644 80.5465 53.9161 80.8503C54.1913 81.1512 54.5729 81.3003 55.0581 81.3003C55.4914 81.3003 55.8479 81.1765 56.129 80.929C56.413 80.6815 56.586 80.3581 56.6496 79.9559V74.314Z" fill="#2A2E30"/>
<path d="M66.2345 73.8809C66.6442 73.8809 66.9829 73.9526 67.2521 74.0946C67.406 74.1705 67.4622 74.2971 67.4237 74.4771L67.0569 76.3896C67.045 76.4993 67.0095 76.5668 66.9504 76.5921C66.8942 76.6146 66.8039 76.6146 66.6782 76.5921C66.4726 76.5443 66.2877 76.519 66.122 76.519C66.0303 76.519 65.8854 76.5302 65.6842 76.5527C65.2227 76.5907 64.8322 76.7524 64.5127 77.0365C64.1932 77.322 64.0335 77.7002 64.0335 78.1727V83.0496C64.0335 83.2563 63.924 83.359 63.708 83.359H61.6609C61.4434 83.359 61.3354 83.2563 61.3354 83.0496V74.314C61.3354 74.1087 61.4434 74.0046 61.6609 74.0046H63.708C63.924 74.0046 64.0335 74.1087 64.0335 74.314V74.8765C64.0335 74.9257 64.0453 74.958 64.069 74.9721C64.0956 74.9834 64.1296 74.9707 64.1695 74.9327C64.6784 74.2324 65.3662 73.8809 66.2345 73.8809Z" fill="#2A2E30"/>
<path d="M77.9902 70.6184C78.2062 70.6184 78.3156 70.7225 78.3156 70.9278V72.5309C78.3156 72.7376 78.2062 72.8403 77.9902 72.8403H74.6769C74.6014 72.8403 74.5645 72.8783 74.5645 72.9528V83.0497C74.5645 83.2564 74.455 83.359 74.239 83.359H72.186C71.9685 83.359 71.8605 83.2564 71.8605 83.0497V72.9528C71.8605 72.8783 71.8221 72.8403 71.7481 72.8403H68.5354C68.3179 72.8403 68.21 72.7376 68.21 72.5309V70.9278C68.21 70.7225 68.3179 70.6184 68.5354 70.6184H77.9902Z" fill="#2A2E30"/>
<path d="M85.6067 74.314C85.6067 74.1087 85.7146 74.0046 85.9321 74.0046H87.9793C88.1952 74.0046 88.3047 74.1087 88.3047 74.314V83.0496C88.3047 83.2564 88.1952 83.359 87.9793 83.359H85.9321C85.7146 83.359 85.6067 83.2564 85.6067 83.0496V82.5603C85.6067 82.5125 85.5904 82.4843 85.5593 82.4759C85.5268 82.4689 85.4972 82.4843 85.4706 82.5209C84.9736 83.1664 84.1881 83.4884 83.1158 83.4884C82.1454 83.4884 81.3467 83.21 80.7195 82.6503C80.0953 82.092 79.7847 81.3101 79.7847 80.3046V74.314C79.7847 74.1087 79.8926 74.0046 80.1101 74.0046H82.1395C82.3555 74.0046 82.4649 74.1087 82.4649 74.314V79.6634C82.4649 80.1514 82.601 80.5465 82.8732 80.8503C83.1483 81.1512 83.5299 81.3003 84.0151 81.3003C84.4485 81.3003 84.805 81.1765 85.086 80.929C85.37 80.6815 85.5431 80.3581 85.6067 79.9559V74.314Z" fill="#2A2E30"/>
<path d="M95.9427 75.7539C95.9427 75.9606 95.8332 76.0633 95.6173 76.0633H93.8896C93.8142 76.0633 93.7772 76.0999 93.7772 76.1702V79.9389C93.7772 80.3411 93.8615 80.635 94.0316 80.822C94.2047 81.0105 94.4828 81.1033 94.8659 81.1033H95.4043C95.6202 81.1033 95.7297 81.2074 95.7297 81.4127V82.9764C95.7297 83.1719 95.6202 83.2802 95.4043 83.3027C94.9191 83.3294 94.5671 83.342 94.3511 83.342C93.2935 83.342 92.5022 83.1733 91.9785 82.8358C91.4534 82.4955 91.1857 81.8627 91.1739 80.9402V76.1702C91.1739 76.0999 91.1354 76.0633 91.0614 76.0633H90.0852C89.8677 76.0633 89.7598 75.9606 89.7598 75.7539V74.3139C89.7598 74.1086 89.8677 74.0045 90.0852 74.0045H91.0614C91.1354 74.0045 91.1739 73.9694 91.1739 73.8977V71.8389C91.1739 71.6336 91.2818 71.5295 91.4993 71.5295H93.4518C93.6677 71.5295 93.7772 71.6336 93.7772 71.8389V73.8977C93.7772 73.9694 93.8142 74.0045 93.8896 74.0045H95.6173C95.8332 74.0045 95.9427 74.1086 95.9427 74.3139V75.7539Z" fill="#2A2E30"/>
<path d="M101.931 83.5053C100.846 83.5053 99.9212 83.2395 99.1565 82.7065C98.3903 82.1707 97.8667 81.4409 97.5827 80.5184C97.4052 79.9489 97.3164 79.3301 97.3164 78.6621C97.3164 77.9239 97.4126 77.2812 97.6063 76.7328C97.8977 75.837 98.4228 75.1339 99.1802 74.6234C99.9404 74.1143 100.863 73.8584 101.949 73.8584C102.993 73.8584 103.89 74.1143 104.635 74.6234C105.384 75.1339 105.904 75.8314 106.197 76.7159C106.39 77.2756 106.487 77.9126 106.487 78.6284C106.487 79.2584 106.404 79.8715 106.239 80.4678C105.943 81.4128 105.413 82.1553 104.653 82.6953C103.896 83.2353 102.988 83.5053 101.931 83.5053ZM101.931 81.3003C102.337 81.3003 102.686 81.1807 102.979 80.9403C103.274 80.697 103.485 80.3637 103.612 79.939C103.714 79.61 103.766 79.1839 103.766 78.6621C103.766 78.1531 103.714 77.7228 103.612 77.374C103.485 76.962 103.274 76.6414 102.979 76.4121C102.686 76.1801 102.323 76.0634 101.89 76.0634C101.471 76.0634 101.115 76.1801 100.819 76.4121C100.526 76.6414 100.316 76.962 100.186 77.374C100.087 77.7228 100.038 78.1531 100.038 78.6621C100.038 79.1614 100.087 79.5875 100.186 79.939C100.316 80.3637 100.531 80.697 100.831 80.9403C101.13 81.1807 101.497 81.3003 101.931 81.3003Z" fill="#2A2E30"/>
<path d="M113.125 73.8809C113.534 73.8809 113.873 73.9526 114.142 74.0946C114.296 74.1705 114.352 74.2971 114.314 74.4771L113.947 76.3896C113.935 76.4993 113.9 76.5668 113.84 76.5921C113.784 76.6146 113.694 76.6146 113.568 76.5921C113.363 76.5443 113.178 76.519 113.012 76.519C112.92 76.519 112.775 76.5302 112.574 76.5527C112.113 76.5907 111.722 76.7524 111.403 77.0365C111.083 77.322 110.924 77.7002 110.924 78.1727V83.0496C110.924 83.2563 110.814 83.359 110.598 83.359H108.551C108.334 83.359 108.226 83.2563 108.226 83.0496V74.314C108.226 74.1087 108.334 74.0046 108.551 74.0046H110.598C110.814 74.0046 110.924 74.1087 110.924 74.314V74.8765C110.924 74.9257 110.935 74.958 110.959 74.9721C110.986 74.9834 111.02 74.9707 111.06 74.9327C111.568 74.2324 112.256 73.8809 113.125 73.8809Z" fill="#2A2E30"/>
<path d="M53.5729 88.3018C53.8125 88.3018 54.024 88.3496 54.206 88.4424C54.3864 88.5366 54.527 88.6702 54.6261 88.8418C54.7281 89.0105 54.7799 89.206 54.7799 89.4268C54.7799 89.6489 54.7281 89.843 54.6261 90.0118C54.5225 90.1805 54.3776 90.3127 54.1882 90.4055C54.0018 90.4955 53.7874 90.5405 53.5433 90.5405H52.6381C52.6144 90.5405 52.6026 90.5504 52.6026 90.5686V91.9974C52.6026 92.0536 52.573 92.0818 52.5138 92.0818H52.0405C51.9769 92.0818 51.9458 92.0536 51.9458 91.9974V88.3861C51.9458 88.3299 51.9769 88.3018 52.0405 88.3018H53.5729ZM53.4782 90.0343C53.6705 90.0343 53.8273 89.9808 53.9456 89.8711C54.064 89.7629 54.1231 89.6208 54.1231 89.4436C54.1231 89.2636 54.064 89.1202 53.9456 89.0105C53.8273 88.898 53.6705 88.8418 53.4782 88.8418H52.6381C52.6144 88.8418 52.6026 88.8516 52.6026 88.8699V90.0005C52.6026 90.023 52.6144 90.0343 52.6381 90.0343H53.4782Z" fill="#04A99F"/>
<path d="M57.0272 92.0817C56.9681 92.0817 56.9385 92.0536 56.9385 91.9974V88.3917C56.9385 88.3355 56.9681 88.3074 57.0272 88.3074H57.5065C57.5656 88.3074 57.5952 88.3355 57.5952 88.3917V91.508C57.5952 91.5305 57.6071 91.5417 57.6307 91.5417H59.5004C59.5625 91.5417 59.5951 91.5699 59.5951 91.6261V91.9974C59.5951 92.0536 59.5625 92.0817 59.5004 92.0817H57.0272Z" fill="#04A99F"/>
<path d="M64.2448 92.0817C64.193 92.0817 64.159 92.0592 64.1442 92.0142L63.9667 91.4574C63.9622 91.4391 63.9489 91.4292 63.9253 91.4292H62.4402C62.4165 91.4292 62.4017 91.4391 62.3988 91.4574L62.2272 92.0142C62.2109 92.0592 62.1754 92.0817 62.1207 92.0817H61.6059C61.5734 92.0817 61.5527 92.0733 61.5409 92.0536C61.529 92.0353 61.5261 92.0128 61.5349 91.9861L62.7479 88.3749C62.7626 88.3299 62.7967 88.3074 62.8484 88.3074H63.5111C63.5658 88.3074 63.6013 88.3299 63.6176 88.3749L64.8364 91.9861C64.8394 91.9946 64.8424 92.003 64.8424 92.0142C64.8424 92.0592 64.8142 92.0817 64.7595 92.0817H64.2448ZM62.5763 90.9005C62.5718 90.9272 62.5822 90.9399 62.6059 90.9399H63.7655C63.7847 90.9399 63.7921 90.9272 63.7892 90.9005L63.2094 89.0667C63.2049 89.0527 63.1975 89.0442 63.1857 89.0442C63.1768 89.0442 63.1694 89.0527 63.162 89.0667L62.5763 90.9005Z" fill="#04A99F"/>
<path d="M69.6033 88.3074C69.6655 88.3074 69.698 88.3355 69.698 88.3917V88.763C69.698 88.8235 69.6655 88.853 69.6033 88.853H68.5916C68.5679 88.853 68.5561 88.8628 68.5561 88.8811V91.9974C68.5561 92.0536 68.5265 92.0817 68.4673 92.0817H67.9881C67.9289 92.0817 67.8993 92.0536 67.8993 91.9974V88.8811C67.8993 88.8628 67.8875 88.853 67.8638 88.853H66.8876C66.8284 88.853 66.7988 88.8235 66.7988 88.763V88.3917C66.7988 88.3355 66.8284 88.3074 66.8876 88.3074H69.6033Z" fill="#04A99F"/>
<path d="M74.5704 88.7574C74.5704 88.8178 74.5379 88.8474 74.4757 88.8474H72.5765C72.5529 88.8474 72.541 88.8572 72.541 88.8755V89.8767C72.541 89.8992 72.5529 89.9105 72.5765 89.9105H73.8486C73.9078 89.9105 73.9373 89.9386 73.9373 89.9949V90.3605C73.9373 90.4167 73.9078 90.4449 73.8486 90.4449H72.5765C72.5529 90.4449 72.541 90.4561 72.541 90.4786V91.9974C72.541 92.0536 72.5114 92.0817 72.4523 92.0817H71.973C71.9139 92.0817 71.8843 92.0536 71.8843 91.9974V88.3917C71.8843 88.3355 71.9139 88.3074 71.973 88.3074H74.4757C74.5379 88.3074 74.5704 88.3355 74.5704 88.3917V88.7574Z" fill="#04A99F"/>
<path d="M78.0032 92.1381C77.7192 92.1381 77.4662 92.0832 77.2458 91.9749C77.0284 91.8624 76.8613 91.7078 76.7429 91.5081C76.6246 91.3056 76.5654 91.0735 76.5654 90.8106V89.5787C76.5654 89.3199 76.6246 89.0921 76.7429 88.8925C76.8642 88.6942 77.0343 88.5409 77.2518 88.4312C77.4677 88.3187 77.7192 88.2625 78.0032 88.2625C78.2901 88.2625 78.5431 88.3187 78.7605 88.4312C78.9764 88.5409 79.1466 88.6942 79.2693 88.8925C79.3906 89.0921 79.4527 89.3199 79.4527 89.5787V90.8106C79.4527 91.0735 79.3906 91.3056 79.2693 91.5081C79.1466 91.7078 78.9764 91.8624 78.7605 91.9749C78.5431 92.0832 78.2901 92.1381 78.0032 92.1381ZM78.0032 91.5981C78.2428 91.5981 78.4351 91.5292 78.5771 91.3899C78.722 91.2479 78.796 91.0623 78.796 90.8331V89.5731C78.796 89.341 78.722 89.1554 78.5771 89.0162C78.4351 88.8742 78.2428 88.8025 78.0032 88.8025C77.7695 88.8025 77.5801 88.8742 77.4352 89.0162C77.2932 89.1554 77.2222 89.341 77.2222 89.5731V90.8331C77.2222 91.0623 77.2932 91.2479 77.4352 91.3899C77.5801 91.5292 77.7695 91.5981 78.0032 91.5981Z" fill="#04A99F"/>
<path d="M84.0135 92.0818C83.9573 92.0818 83.9218 92.0593 83.907 92.0143L83.1615 90.473C83.157 90.4589 83.1437 90.4505 83.1201 90.4505H82.4574C82.4337 90.4505 82.4219 90.4618 82.4219 90.4843V91.9974C82.4219 92.0536 82.3923 92.0818 82.3331 92.0818H81.8539C81.7947 92.0818 81.7651 92.0536 81.7651 91.9974V88.3861C81.7651 88.3299 81.7947 88.3018 81.8539 88.3018H83.3922C83.6245 88.3018 83.8301 88.3496 84.0076 88.4424C84.1851 88.5324 84.3226 88.6618 84.4217 88.8305C84.5194 88.9964 84.5697 89.1849 84.5697 89.3986C84.5697 89.6504 84.5016 89.8641 84.3685 90.0399C84.2339 90.2129 84.049 90.331 83.8123 90.3943C83.8005 90.3985 83.7916 90.4055 83.7887 90.4168C83.7842 90.4252 83.7857 90.4322 83.7946 90.4393L84.5815 91.9805L84.5933 92.0199C84.5933 92.0621 84.5652 92.0818 84.5105 92.0818H84.0135ZM82.4574 88.8418C82.4337 88.8418 82.4219 88.8516 82.4219 88.8699V89.933C82.4219 89.9555 82.4337 89.9668 82.4574 89.9668H83.3035C83.4839 89.9668 83.6304 89.9161 83.7413 89.8149C83.8552 89.7108 83.9129 89.5758 83.9129 89.4099C83.9129 89.2411 83.8552 89.1047 83.7413 88.9993C83.6304 88.8952 83.4839 88.8418 83.3035 88.8418H82.4574Z" fill="#04A99F"/>
<path d="M86.9135 92.0817C86.8543 92.0817 86.8247 92.0536 86.8247 91.9974V88.3917C86.8247 88.3355 86.8543 88.3074 86.9135 88.3074H87.3986C87.4489 88.3074 87.4874 88.3271 87.511 88.3636L88.3985 89.7249C88.4059 89.7361 88.4133 89.7417 88.4222 89.7417C88.4296 89.7417 88.4355 89.7361 88.44 89.7249L89.3393 88.3636C89.363 88.3271 89.3999 88.3074 89.4517 88.3074H89.931C89.9901 88.3074 90.0197 88.3355 90.0197 88.3917V91.9974C90.0197 92.0536 89.9901 92.0817 89.931 92.0817H89.4517C89.3925 92.0817 89.363 92.0536 89.363 91.9974V89.4436C89.363 89.4296 89.357 89.4197 89.3452 89.4155C89.3363 89.4127 89.3289 89.4183 89.3215 89.4324L88.647 90.4842C88.6234 90.5264 88.5849 90.5461 88.5346 90.5461H88.3098C88.258 90.5461 88.221 90.5264 88.1974 90.4842L87.5229 89.4324C87.514 89.4183 87.5051 89.4127 87.4933 89.4155C87.4844 89.4197 87.4815 89.4296 87.4815 89.4436V91.9974C87.4815 92.0536 87.4519 92.0817 87.3927 92.0817H86.9135Z" fill="#04A99F"/>
</svg>
