<svg width="15" height="13" viewBox="0 0 15 13" fill="none" xmlns="http://www.w3.org/2000/svg">
<path d="M1.31836 0.787109H13.6816C14.4077 0.787109 15 1.37879 15 2.10547V10.8945C15 11.6187 14.4103 12.2129 13.6816 12.2129H1.31836C0.594141 12.2129 0 11.6232 0 10.8945V2.10547C0 1.38125 0.589687 0.787109 1.31836 0.787109ZM1.50041 1.66602L7.47205 7.63769L13.4953 1.66602H1.50041ZM14.1211 10.7125V2.28327L9.88831 6.47976L14.1211 10.7125ZM13.4996 11.334L9.26417 7.09854L7.78008 8.56988C7.60828 8.74022 7.33105 8.73966 7.15995 8.56853L5.71289 7.12148L1.50038 11.334H13.4996ZM0.878906 10.7125L5.09142 6.5L0.878906 2.28746V10.7125Z" fill="#343434"/>
</svg>
