<svg width="22" height="22" viewBox="0 0 22 22" fill="none" xmlns="http://www.w3.org/2000/svg">
<path d="M17.2346 1.66938L14.9825 0.371594L12.7304 1.66938L10.4783 0.371594L8.22617 1.66934L5.32905 0V17.2996H1.86835V19.6246C1.86835 20.9345 2.93393 22 4.24375 22H17.7563C19.0661 22 20.1317 20.9345 20.1317 19.6246V0L17.2346 1.66938ZM4.24375 20.71C3.64528 20.71 3.15835 20.2232 3.15835 19.6246V18.5896H15.3809V19.6246C15.3809 20.0154 15.4759 20.3845 15.6437 20.71H4.24375ZM17.7563 20.71C17.1579 20.71 16.671 20.2232 16.671 19.6246V17.2996H6.61906V2.23214L8.22613 3.15816L10.4783 1.8605L12.7304 3.15816L14.9825 1.86046L17.2346 3.15816L18.8417 2.23214V19.6246C18.8417 20.2232 18.3548 20.71 17.7563 20.71Z" fill="white"/>
<path d="M17.5515 12H7.90906V13.29H17.5515V12Z" fill="#BFF1DB"/>
<path d="M17.5515 14.46H7.90906V15.75H17.5515V14.46Z" fill="#BFF1DB"/>
<path d="M13.9256 7.7862C13.728 7.16588 13.1491 6.74775 12.5012 6.74775C12.1796 6.74775 11.9223 6.49043 11.9223 6.16879C11.9223 5.84715 12.1796 5.59443 12.4966 5.58983C12.8137 5.58524 13.0756 5.84715 13.0756 6.16879C13.0756 6.16879 13.0756 6.16879 13.0756 6.17339C13.0756 6.42611 13.2823 6.63288 13.5351 6.63288C13.7878 6.63288 13.9945 6.42611 13.9945 6.17339C13.9945 5.52551 13.5764 4.94655 12.9561 4.74897V4.45949C12.9561 4.20677 12.7493 4 12.4966 4C12.2439 4 12.0371 4.20677 12.0371 4.45949V4.74897C11.2514 5.00169 10.8195 5.84715 11.0722 6.63288C11.2698 7.24859 11.8487 7.67132 12.4966 7.67132C12.8137 7.66673 13.0756 7.92404 13.0802 8.24569C13.0848 8.56733 12.8274 8.82464 12.5058 8.82924C12.5058 8.82464 12.5058 8.82464 12.5012 8.82464C12.1842 8.82464 11.9223 8.56733 11.9223 8.24569C11.9223 7.99297 11.7155 7.7862 11.4628 7.7862C11.21 7.7862 11.0033 7.99297 11.0033 8.24569C11.0033 8.89357 11.4214 9.46793 12.0417 9.6701V9.96418C12.0417 10.2169 12.2485 10.4237 12.5012 10.4237C12.7539 10.4237 12.9607 10.2169 12.9607 9.96418V9.6701C13.7464 9.41738 14.1783 8.57192 13.9256 7.7862Z" fill="#BFF1DB"/>
</svg>
