<svg width="18" height="17" viewBox="0 0 18 17" fill="none" xmlns="http://www.w3.org/2000/svg">
<path d="M17.012 16.488C16.949 13.801 14.234 11.489 10.491 10.879V9.505C10.983 9.032 11.333 8.298 11.562 7.672C11.894 7.506 12.186 7.136 12.356 6.639C12.594 5.951 12.502 5.316 12.15 5.01C12.178 4.772 12.196 4.529 12.165 4.287C12.086 3.624 12.23 3.249 12.359 2.919C12.465 2.642 12.588 2.328 12.465 1.974C12.023 0.701 10.738 0 8.847 0L8.583 0.005C7.27 0.052 6.876 0.605 6.612 1.12C6.579 1.182 6.535 1.266 6.535 1.271C4.823 1.424 4.838 2.84 4.851 3.978L4.854 4.347C4.854 4.552 4.863 4.766 4.88 4.986C4.455 5.286 4.376 5.991 4.701 6.723C4.886 7.138 5.153 7.452 5.45 7.615C5.693 8.289 6.075 9.085 6.629 9.58V10.863C2.831 11.452 0.075 13.77 0.012 16.488L0 17H17.023L17.012 16.488ZM1.066 16C1.458 13.906 3.925 12.179 7.188 11.796L7.629 11.744V9.078L7.413 8.928C7.02 8.656 6.622 7.981 6.323 7.077L6.24 6.796L5.946 6.745C5.893 6.726 5.738 6.592 5.616 6.317C5.541 6.149 5.512 6.005 5.504 5.902L6.014 6.045L5.918 5.296C5.876 4.966 5.854 4.645 5.854 4.346L5.851 3.966C5.836 2.625 5.902 2.332 6.624 2.267C7.169 2.219 7.376 1.818 7.5 1.578C7.65 1.286 7.78 1.035 8.62 1.004L8.847 1C9.676 1 11.126 1.169 11.516 2.282C11.516 2.325 11.464 2.459 11.426 2.557C11.281 2.931 11.062 3.496 11.172 4.41C11.196 4.598 11.165 4.834 11.132 5.085L11.043 5.89L11.484 5.842C11.492 5.946 11.48 6.111 11.409 6.314C11.312 6.603 11.167 6.752 11.172 6.768H10.812L10.698 7.11C10.415 7.963 10.048 8.607 9.689 8.878L9.491 9.028V11.754L9.929 11.809C13.14 12.21 15.57 13.932 15.959 16.001H1.066V16Z" fill="#999999"/>
</svg>
