<svg width="17" height="18" viewBox="0 0 17 18" fill="none" xmlns="http://www.w3.org/2000/svg">
<path d="M16.604 16.868L11.431 11.695C12.406 10.558 13 9.08398 13 7.47198C13 3.88798 10.084 0.971985 6.5 0.971985C4.764 0.971985 3.131 1.64798 1.902 2.87498C0.675001 4.10298 -0.000998892 5.73598 1.10788e-06 7.47198C1.10788e-06 11.056 2.916 13.972 6.5 13.972C8.112 13.972 9.587 13.378 10.724 12.403L15.897 17.576L16.604 16.868ZM6.5 12.972C3.468 12.972 1 10.505 1 7.47198C0.999001 6.00198 1.571 4.62099 2.61 3.58298C3.648 2.54398 5.03 1.97198 6.5 1.97198C9.532 1.97198 12 4.43898 12 7.47198C12 10.504 9.532 12.972 6.5 12.972Z" fill="#181D31"/>
</svg>
