<svg width="36" height="36" viewBox="0 0 36 36" fill="none" xmlns="http://www.w3.org/2000/svg">
<path d="M26.92 15.5C26.7126 15.4046 26.5385 15.2493 26.42 15.0542C26.3015 14.8591 26.2441 14.633 26.255 14.405C22.66 14.18 21.66 9.55 21.66 9.55C21.2641 9.48821 20.8609 9.48821 20.465 9.55C19.93 9.66 19.795 6.245 19.795 6.245H16.335C16.6 9.575 14.47 9.90499 13.74 10.16C13.01 10.415 11 8.63 11 8.63L8.55 10.92C10.875 12.99 9.615 14.42 9.615 14.42C8.88 16.115 6.5 16.37 6.5 16.37V19.63C6.5 19.63 8.23 19.365 9.5 21.23C10.77 23.095 8.57 25.155 8.57 25.155L11 27.22C11.9907 26.4773 13.2321 26.1508 14.46 26.31C16.325 26.665 16.125 29.75 16.125 29.75H19.855C19.855 29.75 19.12 27.085 21.385 26.31C22.0168 26.0928 22.7037 26.0973 23.3327 26.3227C23.9616 26.5481 24.495 26.9809 24.845 27.55L27.44 25.22C27.44 25.22 25.255 23.36 26 21.5C26.745 19.64 29.5 19.765 29.5 19.765V16.305C28.6252 16.0867 27.7637 15.8179 26.92 15.5ZM18 22.05C17.199 22.05 16.416 21.8125 15.7499 21.3674C15.0839 20.9224 14.5648 20.2899 14.2583 19.5499C13.9518 18.8098 13.8715 17.9955 14.0278 17.2099C14.1841 16.4243 14.5698 15.7026 15.1362 15.1362C15.7026 14.5698 16.4243 14.1841 17.2099 14.0278C17.9955 13.8715 18.8098 13.9517 19.5499 14.2583C20.2899 14.5648 20.9224 15.0839 21.3675 15.7499C21.8125 16.416 22.05 17.199 22.05 18C22.05 19.0741 21.6233 20.1043 20.8638 20.8638C20.1043 21.6233 19.0741 22.05 18 22.05Z" fill="#2F3D40"/>
<path d="M27.48 13.16C29.6891 13.16 31.48 11.3692 31.48 9.16003C31.48 6.9509 29.6891 5.16003 27.48 5.16003C25.2708 5.16003 23.48 6.9509 23.48 9.16003C23.48 11.3692 25.2708 13.16 27.48 13.16Z" fill="#2F3D40"/>
</svg>
