<svg width="36" height="36" viewBox="0 0 36 36" fill="none" xmlns="http://www.w3.org/2000/svg">
<path d="M15.1399 20.7801C15.2891 20.7701 15.4388 20.7905 15.5799 20.8401C16.3404 21.1079 17.1387 21.253 17.9449 21.2701C18.8394 21.2726 19.7293 21.1412 20.5849 20.88C20.7819 20.8021 20.9972 20.783 21.2049 20.8251C22.4949 21.0751 26.5749 22.3551 26.6549 28.525V28.71C26.6536 29.0164 26.5316 29.31 26.3154 29.5271C26.0992 29.7442 25.8062 29.8674 25.4999 29.8701H10.4999C10.3443 29.8701 10.1903 29.839 10.047 29.7786C9.90366 29.7182 9.77387 29.6297 9.66529 29.5183C9.55671 29.4069 9.47153 29.2749 9.41478 29.1301C9.35803 28.9853 9.33085 28.8305 9.33486 28.675V28.47C9.33486 28.47 9.31486 21.1151 15.1399 20.7801Z" fill="#2F3D40"/>
<path d="M18 19.245C21.0265 19.245 23.48 16.6907 23.48 13.54C23.48 10.3892 21.0265 7.83496 18 7.83496C14.9735 7.83496 12.52 10.3892 12.52 13.54C12.52 16.6907 14.9735 19.245 18 19.245Z" fill="#2F3D40"/>
<path d="M7.24512 6.79997L17.6101 10.59L28.7551 6.79997L18.0001 3.34497L7.24512 6.79997Z" fill="#2F3D40"/>
<path d="M7.45508 6.82495V15.37" stroke="#2F3D40" stroke-miterlimit="10"/>
</svg>
