<svg width="36" height="36" viewBox="0 0 36 36" fill="none" xmlns="http://www.w3.org/2000/svg">
<path d="M24.6699 6.37H11.3299C10.068 6.37 9.04492 7.39302 9.04492 8.65499V27.34C9.04492 28.602 10.068 29.625 11.3299 29.625H24.6699C25.9319 29.625 26.9549 28.602 26.9549 27.34V8.65499C26.9549 7.39302 25.9319 6.37 24.6699 6.37Z" fill="#0F2C4C"/>
<path d="M17.2598 10.4399H11.7598V12.9399H17.2598V10.4399Z" fill="white"/>
<path d="M17.2598 14.645H11.7598V17.145H17.2598V14.645Z" fill="white"/>
<path d="M17.2598 18.855H11.7598V21.355H17.2598V18.855Z" fill="white"/>
<path d="M17.2598 23.0601H11.7598V25.5601H17.2598V23.0601Z" fill="white"/>
<path d="M24.2402 23.0601H18.7402V25.5601H24.2402V23.0601Z" fill="white"/>
<path d="M24.2402 18.855H18.7402V21.355H24.2402V18.855Z" fill="white"/>
<path d="M24.2402 10.4399H18.7402V12.9399H24.2402V10.4399Z" fill="white"/>
<path d="M24.2402 14.645H18.7402V17.145H24.2402V14.645Z" fill="white"/>
<path d="M24 31C26.7614 31 29 28.7614 29 26C29 23.2386 26.7614 21 24 21C21.2386 21 19 23.2386 19 26C19 28.7614 21.2386 31 24 31Z" fill="white" stroke="#0F2C4C" stroke-width="4" stroke-miterlimit="10"/>
<path d="M23.8252 24.21V26.33L25.7402 27.425" stroke="#0F2C4C" stroke-width="2" stroke-miterlimit="10"/>
</svg>
