<svg width="36" height="36" viewBox="0 0 36 36" fill="none" xmlns="http://www.w3.org/2000/svg">
<g clip-path="url(#clip0_211_220)">
<path d="M15.1399 19.925C15.289 19.9174 15.4382 19.9378 15.5799 19.985C16.3407 20.2524 17.1387 20.3992 17.9449 20.42C18.8395 20.4187 19.729 20.2856 20.5849 20.025C20.7817 19.9461 20.9979 19.9287 21.2049 19.975C22.4949 20.225 26.5749 21.505 26.6549 27.67V27.855C26.6497 28.1588 26.526 28.4485 26.3102 28.6624C26.0945 28.8763 25.8037 28.9974 25.4999 29H10.4999C10.3443 29 10.1903 28.9689 10.047 28.9085C9.90366 28.8481 9.77387 28.7596 9.66529 28.6482C9.55671 28.5369 9.47153 28.4049 9.41478 28.26C9.35803 28.1152 9.33085 27.9605 9.33486 27.805V27.595C9.33486 27.595 9.31486 20.26 15.1399 19.925Z" fill="#0F2C4C"/>
<path d="M18 18.39C21.0265 18.39 23.48 15.8358 23.48 12.685C23.48 9.5342 21.0265 6.97998 18 6.97998C14.9735 6.97998 12.52 9.5342 12.52 12.685C12.52 15.8358 14.9735 18.39 18 18.39Z" fill="#0F2C4C"/>
</g>
<defs>
<clipPath id="clip0_211_220">
<rect width="36" height="36" fill="white"/>
</clipPath>
</defs>
</svg>
