<svg width="22" height="22" viewBox="0 0 22 22" fill="none" xmlns="http://www.w3.org/2000/svg">
<path fill-rule="evenodd" clip-rule="evenodd" d="M4.06494 19.1879C4.06693 19.1915 4.06889 19.1951 4.07179 19.1977C4.10376 19.2291 4.1373 19.2578 4.17077 19.2865C4.19699 19.3089 4.22316 19.3314 4.24853 19.355C4.28357 19.3868 4.3186 19.4188 4.35373 19.4509C4.47744 19.5639 4.60229 19.678 4.73227 19.786C4.82167 19.8578 4.91462 19.9296 5.00617 19.9957C5.16389 20.1156 5.32162 20.2356 5.48636 20.3462C5.57762 20.4048 5.67122 20.4633 5.76484 20.5218C5.78608 20.5351 5.80732 20.5484 5.82854 20.5617C5.84105 20.5694 5.85356 20.5771 5.86607 20.5847C6.00557 20.6705 6.14495 20.7562 6.28905 20.8346C6.38805 20.888 6.48857 20.9359 6.58922 20.9838C6.62388 21.0003 6.65856 21.0168 6.6932 21.0335C6.70653 21.04 6.71985 21.0465 6.73315 21.053C6.86739 21.1183 7.00047 21.183 7.1382 21.2418C7.24962 21.2894 7.36144 21.3292 7.47391 21.3692C7.51424 21.3836 7.55465 21.398 7.59516 21.4128C7.63174 21.4261 7.66713 21.4392 7.70181 21.4521C7.81259 21.4931 7.91611 21.5315 8.02819 21.5665C8.16024 21.607 8.29494 21.6402 8.42949 21.6735C8.46427 21.682 8.49904 21.6906 8.53375 21.6993C8.57738 21.7102 8.62061 21.7216 8.66381 21.733C8.76002 21.7583 8.85611 21.7837 8.95622 21.8035C9.12547 21.8379 9.29688 21.8614 9.46857 21.885C9.494 21.8884 9.51943 21.8919 9.54487 21.8954C9.59012 21.9019 9.63499 21.9093 9.67982 21.9166C9.75568 21.9292 9.83144 21.9416 9.90888 21.9493C10.2314 21.9816 10.5566 21.9996 10.8848 21.9996C11.2129 21.9996 11.5382 21.9816 11.8607 21.9493C11.9382 21.9416 12.014 21.9291 12.0899 21.9166C12.1346 21.9092 12.1795 21.9019 12.2247 21.8954C12.2501 21.8919 12.2754 21.8884 12.3008 21.885C12.4726 21.8614 12.644 21.8379 12.8133 21.8035C12.8937 21.7871 12.9742 21.766 13.0546 21.7449C13.115 21.729 13.1754 21.7132 13.2358 21.6993C13.2703 21.6907 13.3049 21.6821 13.3395 21.6736C13.4742 21.6403 13.6091 21.607 13.7413 21.5665C13.846 21.5338 13.9482 21.496 14.0501 21.4583C14.0915 21.443 14.1329 21.4277 14.1744 21.4128C14.201 21.4032 14.2284 21.3934 14.2561 21.3835C14.3782 21.34 14.5092 21.2933 14.6313 21.2418C14.7497 21.1919 14.8663 21.1353 14.9829 21.0788C15.014 21.0636 15.0452 21.0485 15.0763 21.0335C15.1109 21.0168 15.1456 21.0003 15.1802 20.9838C15.2809 20.9359 15.3815 20.888 15.4805 20.8346C15.6232 20.7569 15.7612 20.6721 15.8994 20.5872C15.9132 20.5787 15.9271 20.5702 15.941 20.5617C15.9771 20.5391 16.0132 20.5172 16.0493 20.4953C16.128 20.4475 16.2064 20.3999 16.2832 20.3462C16.448 20.2356 16.6057 20.1157 16.7634 19.9957C16.8021 19.9652 16.8412 19.9361 16.8801 19.9071C16.933 19.8675 16.9857 19.8282 17.0373 19.786C17.2041 19.6495 17.3626 19.5044 17.521 19.355C17.5464 19.3313 17.5726 19.3089 17.5989 19.2864C17.6323 19.2578 17.6658 19.2291 17.6977 19.1977C17.7007 19.1951 17.7026 19.1915 17.7047 19.1879C17.7065 19.1845 17.7084 19.1811 17.7111 19.1783L17.764 16.9209C17.3122 14.771 15.9244 12.9484 13.9942 11.97C15.5721 10.2167 15.4578 7.4905 13.739 5.88095C12.0202 4.27141 9.3477 4.38798 7.76984 6.14129C6.28649 7.7896 6.28649 10.3217 7.76984 11.97C5.83964 12.9485 4.45184 14.771 4 16.9209L4.05842 19.1783C4.06116 19.1811 4.06306 19.1845 4.06494 19.1879ZM16.2957 18.6741C16.4338 18.5702 16.5705 18.4628 16.7028 18.3497C16.7238 18.3322 16.7438 18.3143 16.764 18.2963C16.7738 18.2875 16.7837 18.2787 16.7937 18.2698C16.7612 15.8658 15.1725 13.7431 12.8295 12.9732C11.658 13.5149 10.2978 13.5149 9.1263 12.9732C6.78331 13.7431 5.19461 15.8658 5.16211 18.2698C5.1729 18.2791 5.18343 18.2888 5.19391 18.2983C5.21378 18.3165 5.23348 18.3345 5.25441 18.3497C5.38672 18.4621 5.52337 18.5702 5.6615 18.6741C5.74295 18.7349 5.82435 18.795 5.90796 18.8529C6.03954 18.9455 6.17334 19.0331 6.30926 19.1172C6.40812 19.1787 6.50921 19.2381 6.61097 19.296C6.73893 19.3716 6.86906 19.4416 7.00063 19.508C7.11692 19.566 7.22959 19.6183 7.35465 19.6741C7.47971 19.7299 7.60328 19.785 7.73414 19.8352C7.86499 19.8854 7.99951 19.9313 8.13398 19.9765C8.15476 19.9835 8.17554 19.9905 8.19632 19.9974C8.29844 20.0317 8.40074 20.066 8.50401 20.096C8.65157 20.1377 8.80133 20.173 8.95183 20.2083C8.98863 20.2167 9.0253 20.2255 9.06197 20.2342C9.14258 20.2535 9.22316 20.2727 9.30512 20.2882C9.46787 20.3189 9.63386 20.3408 9.80063 20.3628L9.82998 20.3666C9.86898 20.3716 9.90785 20.3773 9.94674 20.383C10.0079 20.3919 10.0692 20.4009 10.131 20.4069C10.4101 20.4331 10.6929 20.4486 10.9786 20.4486C11.2643 20.4486 11.5471 20.4331 11.8263 20.4069C11.8881 20.4009 11.9494 20.3919 12.0107 20.3829C12.0495 20.3773 12.0883 20.3716 12.1273 20.3666L12.1566 20.3628C12.3234 20.3408 12.4894 20.3189 12.6521 20.2882C12.7336 20.2727 12.8137 20.2537 12.8938 20.2346C12.9309 20.2257 12.9681 20.2168 13.0054 20.2083C13.0211 20.2047 13.0368 20.201 13.0525 20.1973C13.1875 20.1657 13.323 20.1339 13.4532 20.096C13.5564 20.0661 13.6586 20.0318 13.7606 19.9975C13.7815 19.9905 13.8024 19.9835 13.8233 19.9765C13.9578 19.9327 14.0944 19.8854 14.2231 19.8352C14.3518 19.785 14.4834 19.7278 14.6026 19.6741C14.7218 19.6204 14.8403 19.5659 14.9566 19.508C15.0882 19.4373 15.2183 19.3667 15.3463 19.296C15.4481 19.238 15.5491 19.1787 15.648 19.1172C15.784 19.0331 15.9177 18.9455 16.0493 18.8529C16.1329 18.7949 16.2143 18.7349 16.2957 18.6741ZM12.4028 6.66018C11.0029 5.89501 9.23002 6.37787 8.44289 7.73869C7.65576 9.09951 8.15247 10.8229 9.55234 11.5881L9.56542 11.5923C9.75821 11.6967 9.96195 11.7805 10.1732 11.8425C10.1915 11.8474 10.2087 11.853 10.2256 11.8585C10.2455 11.8651 10.265 11.8715 10.2858 11.8764C10.3519 11.8928 10.4203 11.9047 10.4859 11.9161C10.4939 11.9175 10.5018 11.9189 10.5097 11.9202C10.6507 11.9442 10.7934 11.9581 10.9365 11.9619H11.0193C11.1624 11.9581 11.3051 11.9442 11.4461 11.9202L11.4545 11.9188C11.5267 11.9066 11.6 11.8941 11.67 11.8764C11.6938 11.8709 11.7158 11.8637 11.7378 11.8565C11.7526 11.8517 11.7674 11.8468 11.7827 11.8425C11.9939 11.7805 12.1976 11.6966 12.3904 11.5923C12.3948 11.5881 12.3992 11.5881 12.4028 11.5881C12.8673 11.3342 13.2511 10.9611 13.5122 10.5096C14.2994 9.14878 13.8027 7.42536 12.4028 6.66018Z" fill="#FCE341"/>
<circle cx="11" cy="11" r="10.2" stroke="white" stroke-width="1.6"/>
</svg>
