<svg width="17" height="17" viewBox="0 0 17 17" fill="none" xmlns="http://www.w3.org/2000/svg">
<path d="M0.675324 17C0.498655 17 0.326032 16.9299 0.197913 16.8031C0.0387763 16.6439 -0.031352 16.4146 0.0131524 16.1948L0.966625 11.4268C0.993597 11.2947 1.05563 11.1746 1.15139 11.0816L11.6409 0.590765C12.4285 -0.196922 13.7138 -0.196922 14.5013 0.590765L16.4083 2.49794C17.1972 3.28697 17.1972 4.56966 16.4083 5.3587L5.91875 15.8495C5.82569 15.9439 5.70567 16.0073 5.5735 16.0343L0.80614 16.9879C0.762984 16.996 0.71848 17 0.675324 17ZM2.25051 11.8895L1.53574 15.4651L5.11093 14.7502L15.4562 4.40376C15.7192 4.14075 15.7192 3.71319 15.4562 3.45018L13.5492 1.543C13.2862 1.27999 12.8587 1.27999 12.5958 1.543L2.25051 11.8895ZM5.44269 15.372H5.45617H5.44269Z" fill="#FCE341"/>
</svg>
